# Blender 4.4.0
# www.blender.org
mtllib terrain_sideEndMirror.mtl
o terrain_sideEnd
v 0.110791 -0.000000 -0.500000
v 0.000001 0.000000 0.500000
v 0.500001 -0.000000 -0.500000
v 0.500001 0.000000 0.500000
v -0.499999 0.500000 -0.500000
v -0.499999 0.000000 0.500000
v -0.249999 0.500000 -0.500000
v -0.249999 0.000000 0.500000
v 0.000001 0.500000 -0.500000
vn -0.0000 1.0000 -0.0000
vn -0.0000 0.8944 0.4472
vn -0.9707 -0.2151 -0.1075
vn -0.0000 -0.0000 1.0000
vn 0.6667 0.6667 0.3333
vt 19.685040 -19.685040
vt 0.000000 -19.685040
vt 0.000000 19.685040
vt 19.685040 19.685040
vt 9.842519 26.410250
vt 19.685040 26.410250
vt 19.685040 -17.606831
vt 9.842519 -17.606831
vt -0.000000 26.410250
vt -0.000000 -17.606831
vt 17.606831 -5.868945
vt -26.410250 -5.868945
vt -17.606831 20.541309
s 1
usemtl rock
f 3/1/1 1/2/1 2/3/1
f 4/4/1 3/1/1 2/3/1
f 7/5/2 5/6/2 6/7/2
f 6/7/2 8/8/2 7/5/2
usemtl _defaultMat
f 2/1/3 9/2/3 1/3/3
f 9/4/4 1/1/4 3/3/4
usemtl rockDark
f 9/9/2 7/5/2 8/8/2
f 8/8/2 2/10/2 9/9/2
f 2/11/5 3/12/5 9/13/5
